PathFileType	4	(X/Y/Z)	D:\TRACE\v60_Jaco2_6-2-23\JustArmDRS_Motion3_4-platform.trc
DataRate	CameraRate	NumFrames	NumMarkers	Units	OrigDataRate	OrigDataStartFrame	OrigNumFrames
100.00	100.00	      49	5	mm	100.00	6126	      7000
Frame#	Time	Left_Front			Right_Front			Left_Aft			Right_Aft			Post			
		X1	Y1	Z1	X2	Y2	Z2	X3	Y3	Z3	X4	Y4	Z4	X5	Y5	Z5	

6126	61.250	-778.06348	18.38011	-648.88116	792.38361	16.67447	-626.17786	-709.40790	5.17092	485.21756	704.96686	1.49829	590.94006	17.73611	1320.07483	-945.02106	
6127	61.260	-777.99689	18.23450	-648.98688	792.48572	16.34564	-626.20935	-709.26508	5.25771	485.16235	705.14142	1.74010	590.93970	17.88861	1319.77271	-945.47394	
6128	61.270	-777.83948	18.11449	-649.10321	792.63080	16.10079	-626.23395	-709.12506	5.36467	485.07843	705.38025	2.00617	590.95581	17.80017	1319.32874	-946.02319	
6129	61.280	-777.67169	17.90694	-649.19867	792.83167	15.91584	-626.26709	-708.94989	5.55229	484.97385	705.51935	2.19366	590.85535	17.92991	1318.93201	-946.58447	
6130	61.290	-777.51605	17.72252	-649.20660	793.00000	15.73689	-626.32281	-708.83691	5.73500	484.95419	705.75000	2.48977	590.78589	18.07067	1318.62415	-946.81860	
6131	61.300	-777.29285	17.52678	-649.23132	793.11761	15.47459	-626.35254	-708.68231	5.81705	484.99020	705.92523	2.64840	590.74316	18.21436	1318.29370	-947.28906	
6132	61.310	-777.40997	17.39238	-648.85370	793.24744	15.30999	-626.37317	-708.58734	5.96984	485.02481	705.98022	2.77423	590.69330	18.34524	1318.10889	-947.66425	
6133	61.320	-776.99561	17.06889	-649.08179	793.36926	15.18915	-626.35486	-708.43567	6.01406	484.95343	706.04675	2.83568	590.60455	18.40735	1317.91675	-947.88770	
6134	61.330	-776.79419	16.93558	-649.16052	793.47839	15.06427	-626.39154	-708.27728	6.09655	484.93069	706.08142	2.98904	590.53522	18.66239	1317.72937	-948.06891	
6135	61.340	-776.69342	16.84851	-649.16711	793.65833	14.91594	-626.36090	-708.18774	6.22134	484.94681	706.14954	3.04209	590.43988	18.79052	1317.54810	-948.30212	
6136	61.350	-776.54626	16.68623	-649.07892	793.64612	14.87622	-626.38989	-708.07153	6.29988	484.90063	706.29456	3.18126	590.41675	18.86524	1317.40735	-948.54578	
6137	61.360	-776.45233	16.49779	-649.01617	793.69995	14.82339	-626.39429	-708.00763	6.36092	484.88864	706.37482	3.26539	590.42084	18.86273	1317.21606	-948.67957	
6138	61.370	-776.44183	16.40981	-649.00177	793.73309	14.74116	-626.43481	-707.98969	6.41609	484.83170	706.45538	3.38032	590.40088	18.82737	1317.12634	-948.86542	
6139	61.380	-776.39453	16.36767	-648.98425	793.83734	14.68562	-626.45093	-707.93854	6.47745	484.80542	706.56830	3.38143	590.45117	18.91864	1316.95776	-949.04529	
6140	61.390	-776.31677	16.37354	-649.00024	793.91901	14.68003	-626.44257	-707.93726	6.55575	484.78366	706.53894	3.41388	590.38916	19.00916	1316.86450	-949.24109	
6141	61.400	-776.34253	16.38782	-648.99500	794.00299	14.54893	-626.53992	-707.87714	6.55015	484.70352	706.55310	3.43100	590.36212	19.10305	1316.73181	-949.37830	
6142	61.410	-776.34314	16.35386	-649.03882	794.07935	14.50889	-626.55304	-707.82458	6.54582	484.68539	706.59418	3.42309	590.36005	19.17992	1316.61047	-949.57013	
6143	61.420	-776.27289	16.33089	-649.02087	794.07776	14.48956	-626.54431	-707.84467	6.61524	484.66309	706.60236	3.40460	590.34479	19.10909	1316.62366	-949.67706	
6144	61.430	-776.30334	16.29162	-649.00427	794.03809	14.49672	-626.58826	-707.83258	6.62975	484.63019	706.55255	3.42542	590.33716	19.08279	1316.57153	-949.70355	
6145	61.440	-776.29102	16.33784	-649.02203	794.06665	14.50764	-626.53040	-707.86969	6.58833	484.66949	706.57587	3.42161	590.33276	19.16000	1316.60059	-949.71014	
6146	61.450	-776.31250	16.35186	-649.03278	794.04895	14.54414	-626.55139	-707.86108	6.60987	484.70847	706.58636	3.43849	590.36377	19.14503	1316.66589	-949.69104	
6147	61.460	-776.25165	16.38467	-649.00055	794.05908	14.57510	-626.55292	-707.83215	6.57529	484.70236	706.63068	3.39141	590.36292	19.12317	1316.71680	-949.54211	
6148	61.470	-776.29126	16.37979	-649.00525	794.07629	14.58625	-626.48853	-707.81091	6.53424	484.70102	706.64832	3.36791	590.37341	19.11738	1316.78967	-949.32666	
6149	61.480	-776.28296	16.39058	-648.97870	794.08606	14.61113	-626.48212	-707.86377	6.52092	484.72287	706.68433	3.34033	590.42505	19.15394	1316.86133	-949.13300	
6150	61.490	-776.30359	16.43249	-648.99066	794.10309	14.62982	-626.46356	-707.86206	6.50709	484.71439	706.65576	3.35291	590.40527	19.15951	1316.92981	-948.87158	
6151	61.500	-776.26093	16.43168	-648.96204	794.08405	14.66773	-626.47949	-707.83582	6.47918	484.72443	706.70007	3.31092	590.42761	19.16564	1317.00317	-948.72546	
6152	61.510	-776.26874	16.54315	-648.98224	794.12592	14.76068	-626.41010	-707.81604	6.41839	484.77020	706.69305	3.18677	590.55688	19.16073	1317.15845	-948.65820	
6153	61.520	-776.26904	16.55493	-648.96478	794.15472	14.82091	-626.41028	-707.79254	6.33183	484.80624	706.72791	3.13519	590.65179	19.17654	1317.30603	-948.56213	
6154	61.530	-776.28339	16.58717	-648.95178	794.09851	14.89661	-626.36066	-707.76678	6.21006	484.86792	706.74640	3.05009	590.73572	19.13979	1317.45569	-948.48651	
6155	61.540	-776.35699	16.80669	-648.97906	794.06024	15.05331	-626.32373	-707.82092	6.05619	484.98038	706.68018	2.94629	590.76324	19.03139	1317.71973	-948.32806	
6156	61.550	-776.46100	17.04759	-649.02283	793.95697	15.27185	-626.28088	-707.90887	5.91750	485.03381	706.39893	2.76971	590.85846	18.82297	1317.93933	-948.11548	
6157	61.560	-776.70551	17.37526	-649.04010	793.78632	15.52204	-626.24316	-708.04309	5.74944	485.01526	706.39667	2.58886	590.78278	18.70034	1318.34741	-947.91089	
6158	61.570	-776.94098	17.64183	-649.07233	793.54755	15.81476	-626.27863	-708.29572	5.64026	485.05600	706.22339	2.41504	590.82245	18.46844	1318.72974	-947.55121	
6159	61.580	-777.16565	17.86981	-649.10620	793.31189	16.04557	-626.29236	-708.51025	5.51892	485.04016	706.03845	2.13005	590.89227	18.27484	1319.03931	-947.01239	
6160	61.590	-777.32050	18.05420	-649.00000	793.11530	16.26114	-626.23138	-708.67657	5.39725	485.06924	705.85919	1.85809	590.93707	18.16614	1319.46741	-946.19611	
6161	61.600	-777.48773	18.30099	-648.97156	793.03723	16.55386	-626.01300	-708.88824	5.26695	485.08066	705.71149	1.72825	591.00244	18.21067	1319.78833	-945.35858	
6162	61.610	-777.71442	18.56979	-648.92035	792.94379	16.79940	-625.97913	-708.99731	5.10561	485.14490	705.53845	1.55358	591.00720	18.10161	1319.96777	-944.47980	
6163	61.620	-777.78088	18.68471	-648.79956	792.80109	16.92081	-626.05518	-709.12805	5.02105	485.20306	705.31781	1.34845	590.98279	17.99024	1320.14075	-943.77356	
6164	61.630	-777.91052	18.84165	-648.75006	792.63971	17.11291	-626.00970	-709.25549	5.00137	485.20584	705.13916	1.26046	591.02588	17.60342	1320.51624	-942.96533	
6165	61.640	-778.08075	18.99814	-648.68109	792.29755	17.36265	-625.98572	-709.56409	4.87429	485.13074	704.92944	1.09794	591.03278	17.23754	1320.89880	-942.52551	
6166	61.650	-778.29712	19.17143	-648.55493	792.15521	17.56665	-625.94489	-709.81836	4.63991	485.08224	704.71991	0.88634	591.14819	16.96559	1321.23730	-942.06348	
6167	61.660	-778.47266	19.36819	-648.48871	791.95953	17.80139	-625.80347	-709.98126	4.34672	485.15930	704.56763	0.60920	591.21271	16.85755	1321.40845	-942.05096	
6168	61.670	-778.69550	19.62919	-648.40594	791.74438	18.05275	-625.72516	-710.13965	4.04677	485.36893	704.46838	0.48447	591.21960	16.76912	1321.68677	-941.85510	
6169	61.680	-778.89551	20.12409	-648.34857	791.54034	18.29936	-625.60986	-710.34052	3.76524	485.54016	704.26196	0.27809	591.26306	16.52301	1322.24609	-941.64636	
6170	61.690	-779.09546	20.37248	-648.20837	791.38361	18.53076	-625.52350	-710.53552	3.64908	485.57452	703.92365	-0.06009	591.31097	16.22913	1322.80200	-941.50403	
6171	61.700	-779.36108	20.49507	-648.06244	791.14478	18.86105	-625.41278	-710.80890	3.54326	485.75671	703.60828	-0.27893	591.44965	16.04999	1323.19885	-941.22650	
6172	61.710	-779.75879	20.82255	-648.05157	790.92365	19.14740	-625.31549	-711.03552	3.33922	485.80273	703.33838	-0.47554	591.57166	15.76381	1323.57385	-940.44263	
6173	61.720	-780.21002	21.42637	-648.14612	790.52393	19.47755	-625.18085	-711.40918	3.12123	485.82104	703.30164	-0.62529	591.72656	15.55939	1323.94971	-939.73633	
6174	61.730	-780.34100	21.68837	-647.97607	790.28296	19.74570	-625.17169	-711.66455	2.88210	485.87482	703.01526	-0.81872	591.71088	15.55219	1324.54797	-938.75482	
